# xmcd
#
# Track frame offsets:
#   150
#   21647
#   41882
#   65750
#   93612
#   118582
#   141390
#   161897
#   181575
#   199287
#   224652
#   245935
#   265927
#   289780
#   317585
#
# Disc length: 4566 seconds
#
# Revision: 0
# Processed by: cddbd v1.5.1PL0 Copyright (c) Steve Scherf et al.
# Submitted via: uFREEDB ActiveX Control 1.5
#
DISCID=fc11d40f
DTITLE=Graziela - A Fé
DYEAR=1900
DGENRE=Gospel and Religious
TTITLE0=Jesus
TTITLE1=Louvor da Vitória
TTITLE2=Venceste o Mal
TTITLE3=A Fé
TTITLE4=Não Pare de Louvar
TTITLE5=Ele Está Conosco
TTITLE6=Cristo Poderoso
TTITLE7=Deus Vai Te Alcançar
TTITLE8=O Amado de Deus
TTITLE9=Deus Fará Vencer
TTITLE10=
TTITLE11=
TTITLE12=
TTITLE13=
TTITLE14=
EXTD=
EXTT0=
EXTT1=
EXTT2=
EXTT3=
EXTT4=
EXTT5=
EXTT6=
EXTT7=
EXTT8=
EXTT9=
EXTT10=
EXTT11=
EXTT12=
EXTT13=
EXTT14=
PLAYORDER=
